<?xml version="1.0" encoding="UTF-8"?>
<svg width="512" height="512" viewBox="0 0 512 512" fill="none" xmlns="http://www.w3.org/2000/svg">
  <rect width="512" height="512" fill="#4A5568"/>
  <path d="M256 128C185.307 128 128 185.307 128 256C128 326.693 185.307 384 256 384C326.693 384 384 326.693 384 256C384 185.307 326.693 128 256 128ZM256 352C203.065 352 160 308.935 160 256C160 203.065 203.065 160 256 160C308.935 160 352 203.065 352 256C352 308.935 308.935 352 256 352Z" fill="white"/>
  <path d="M256 192C221.49 192 192 221.49 192 256C192 290.51 221.49 320 256 320C290.51 320 320 290.51 320 256C320 221.49 290.51 192 256 192ZM256 288C234.909 288 216 269.091 216 248C216 226.909 234.909 208 256 208C277.091 208 296 226.909 296 248C296 269.091 277.091 288 256 288Z" fill="white"/>
</svg>